<?xml version="1.0" standalone="no"?>
<!DOCTYPE svg PUBLIC "-//W3C//DTD SVG 1.1//EN" "http://www.w3.org/Graphics/SVG/1.1/DTD/svg11.dtd" >
<svg xmlns="http://www.w3.org/2000/svg" xmlns:xlink="http://www.w3.org/1999/xlink" version="1.1">
<metadata>
Created by FontForge 20170731 at Mon Jan 15 00:48:09 2018
 By Aleksey,,,
Copyright sinnyboi 2018
</metadata>
<defs>
<font id="Mario64" horiz-adv-x="2047" >
  <font-face 
    font-family="Mario64"
    font-weight="400"
    font-stretch="normal"
    units-per-em="4096"
    panose-1="0 0 4 0 0 0 0 0 0 0"
    ascent="3276"
    descent="-820"
    x-height="2048"
    cap-height="3413"
    bbox="0 -682 3413 4096"
    underline-thickness="204"
    underline-position="103"
    unicode-range="U+0020-201D"
  />
<missing-glyph horiz-adv-x="0" 
d="M1706 484v543h-543v-543h543zM2249 1119v543h-1086v-543h1086zM1706 1750v543h-543v-543h543zM2249 2385v539h-543q-225 0 -382 -157q-161 -160 -161 -382h1086zM0 0v3413h3413v-3413h-3413z" />
    <glyph glyph-name=".notdef" horiz-adv-x="0" 
d="M1706 484v543h-543v-543h543zM2249 1119v543h-1086v-543h1086zM1706 1750v543h-543v-543h543zM2249 2385v539h-543q-225 0 -382 -157q-161 -160 -161 -382h1086zM0 0v3413h3413v-3413h-3413z" />
    <glyph glyph-name="glyph1" horiz-adv-x="0" 
 />
    <glyph glyph-name="glyph2" horiz-adv-x="682" 
 />
    <glyph glyph-name="space" unicode=" " horiz-adv-x="682" 
 />
    <glyph glyph-name="exclam" unicode="!" horiz-adv-x="1365" 
d="M0 0v682h682v-682h-682zM341 1024v1365h341v-1365h-341zM682 2389v1024h342v-1024h-342z" />
    <glyph glyph-name="quotedbl" unicode="&#x22;" 
d="M341 2389v341h-341v1024h341v-341h341v-1024h-341zM1365 2389v341h-341v1024h341v-341h341v-1024h-341z" />
    <glyph glyph-name="dollar" unicode="$" horiz-adv-x="3072" 
d="M341 341v341h341v-341h-341zM682 0v341h342v341h341v-341h683v-341h-1366zM2048 341v341h341v-341h-341zM0 682v2048h341v-2048h-341zM682 682v2048h342v-2048h-342zM2389 682v2048h341v-2048h-341zM341 2730v342h341v-342h-341zM2048 2730v342h341v-342h-341zM1024 2730
v342h-342v341h1366v-341h-683v-342h-341z" />
    <glyph glyph-name="ampersand" unicode="&#x26;" horiz-adv-x="2730" 
d="M341 0v341h1024v-341h-1024zM2048 0v341h341v-341h-341zM0 341v683h341v-683h-341zM1365 341v341h-341v342h682v-342h342v-341h-683zM1706 1024v341h683v-341h-683zM341 1024v341h341v1024h342v-683h341v-341h-341v-341h-683zM1365 1706v683h341v-683h-341zM1024 2389
v341h341v-341h-341z" />
    <glyph glyph-name="parenleft" unicode="(" horiz-adv-x="1365" 
d="M682 0v341h342v-341h-342zM341 341v341h341v-341h-341zM0 682v2731h341v-2731h-341zM341 3413v341h341v-341h-341zM682 3754v342h342v-342h-342z" />
    <glyph glyph-name="parenright" unicode=")" horiz-adv-x="1365" 
d="M0 0v341h341v-341h-341zM341 341v341h341v-341h-341zM682 682v2731h342v-2731h-342zM341 3413v341h341v-341h-341zM0 3754v342h341v-342h-341z" />
    <glyph glyph-name="asterisk" unicode="*" horiz-adv-x="2730" 
d="M0 682v342h341v682h341v342h-341v341h-341v341h1024v683h341v-683h1024v-341h-341v-341h-342v-342h342v-682h341v-342h-683v342h-341v341h-341v-341h-342v-342h-682z" />
    <glyph glyph-name="comma" unicode="," horiz-adv-x="1365" 
d="M0 -682v682h341v682h683v-682h-342v-341h-341v-341h-341z" />
    <glyph glyph-name="hyphen" unicode="-" horiz-adv-x="1365" 
d="M0 682v342h1024v-342h-1024z" />
    <glyph glyph-name="period" unicode="." horiz-adv-x="1024" 
d="M0 0v682h682v-682h-682z" />
    <glyph glyph-name="slash" unicode="/" horiz-adv-x="1365" 
d="M0 0v1024h341v-1024h-341zM341 1024v1365h341v-1365h-341zM682 2389v1024h342v-1024h-342z" />
    <glyph glyph-name="zero" unicode="0" horiz-adv-x="2389" 
d="M341 0v341h1024v-341h-1024zM1365 341v341h341v-341h-341zM0 341v1707h341v-1707h-341zM341 2048v682h341v-682h-341zM682 2730v342h342v-342h-342zM1706 682v2390h342v-2390h-342zM1024 3072v341h682v-341h-682z" />
    <glyph glyph-name="one" unicode="1" horiz-adv-x="1706" 
d="M0 0v341h341v1024h341v-1024h342v-341h-1024zM682 1365v1024h342v-1024h-342zM341 2730v342h341v-342h-341zM1024 2389v683h-342v341h683v-1024h-341z" />
    <glyph glyph-name="two" unicode="2" horiz-adv-x="2389" 
d="M1706 341v341h342v-341h-342zM0 0v1024h341v-683h1365v-341h-1706zM341 1024v341h341v-341h-341zM682 1365v341h683v-341h-683zM1365 1706v342h341v-342h-341zM341 2389v341h341v-341h-341zM682 2730v342h342v-342h-342zM1706 2048v1024h342v-1024h-342zM1024 3072v341
h682v-341h-682z" />
    <glyph glyph-name="three" unicode="3" horiz-adv-x="2389" 
d="M341 0v341h1024v-341h-1024zM0 341v341h341v-341h-341zM1365 341v341h341v-341h-341zM1706 682v683h342v-683h-342zM1365 1365v341h341v-341h-341zM682 1706v342h683v-342h-683zM1365 2048v341h341v-341h-341zM341 2389v341h341v-341h-341zM682 2730v342h342v-342h-342z
M1706 2389v683h342v-683h-342zM1024 3072v341h682v-341h-682z" />
    <glyph glyph-name="four" unicode="4" horiz-adv-x="2389" 
d="M0 1024v682h341v-682h-341zM682 0v682h-341v342h683v682h341v-682h683v-342h-1024v-682h-342zM341 1706v683h341v-683h-341zM1365 1706v683h341v-683h-341zM682 2389v341h342v-341h-342zM1024 2730v342h341v-342h-341zM1706 2389v683h342v-683h-342zM1365 3072v341h341
v-341h-341z" />
    <glyph glyph-name="five" unicode="5" horiz-adv-x="2389" 
d="M341 0v341h1024v-341h-1024zM0 341v341h341v-341h-341zM1365 341v341h341v-341h-341zM1706 682v683h342v-683h-342zM1365 1365v341h341v-341h-341zM0 1365v683h341v-342h341v-341h-682zM682 1706v342h683v-342h-683zM341 2048v682h341v-682h-341zM682 2730v683h1366v-341
h-1024v-342h-342z" />
    <glyph glyph-name="six" unicode="6" horiz-adv-x="2389" 
d="M341 0v341h1024v-341h-1024zM1365 341v341h341v-341h-341zM1706 682v1024h342v-1024h-342zM0 341v1707h341v-342h341v-341h-341v-1024h-341zM682 1706v342h1024v-342h-1024zM341 2048v682h341v-682h-341zM682 2730v342h342v-342h-342zM1706 2730v342h342v-342h-342z
M1024 3072v341h682v-341h-682z" />
    <glyph glyph-name="seven" unicode="7" horiz-adv-x="2389" 
d="M0 0v682h341v-682h-341zM341 682v683h341v-683h-341zM682 1365v341h342v-341h-342zM1024 1706v342h341v-342h-341zM1365 2048v341h341v-341h-341zM0 2389v341h341v-341h-341zM341 2730v342h341v-342h-341zM1706 2389v683h342v-683h-342zM682 3072v341h1024v-341h-1024z
" />
    <glyph glyph-name="eight" unicode="8" horiz-adv-x="2389" 
d="M341 0v341h1024v-341h-1024zM1365 341v341h341v-341h-341zM0 341v1024h341v-1024h-341zM1706 682v683h342v-683h-342zM341 1365v341h341v-341h-341zM1365 1365v341h341v-341h-341zM682 1706v342h683v-342h-683zM1365 2048v341h341v-341h-341zM341 2048v682h341v-682h-341
zM682 2730v342h342v-342h-342zM1706 2389v683h342v-683h-342zM1024 3072v341h682v-341h-682z" />
    <glyph glyph-name="nine" unicode="9" horiz-adv-x="2389" 
d="M341 0v341h1024v-341h-1024zM0 341v341h341v-341h-341zM1365 341v341h341v-341h-341zM682 1365v341h683v-341h-683zM341 1706v1024h341v-1024h-341zM682 2730v342h342v-342h-342zM1706 682v1024h-341v342h341v1024h342v-2390h-342zM1024 3072v341h682v-341h-682z" />
    <glyph glyph-name="colon" unicode=":" horiz-adv-x="1024" 
d="M0 0v682h682v-682h-682zM0 1706v683h682v-683h-682z" />
    <glyph glyph-name="semicolon" unicode=";" horiz-adv-x="1365" 
d="M0 -682v682h341v682h683v-682h-342v-341h-341v-341h-341zM341 1706v683h683v-683h-683z" />
    <glyph glyph-name="question" unicode="?" 
d="M341 0v682h683v-682h-683zM682 1024v682h342v-682h-342zM1024 1706v342h341v-342h-341zM0 2048v682h341v-682h-341zM341 2730v342h341v-342h-341zM1365 2048v1024h341v-1024h-341zM682 3072v341h683v-341h-683z" />
    <glyph glyph-name="A" unicode="A" 
d="M0 0v1024h341v-1024h-341zM682 2048v682h342v-682h-342zM1365 0v1024h-1024v1024h341v-683h683v1365h-341v342h341v341h341v-3413h-341z" />
    <glyph glyph-name="B" unicode="B" 
d="M1024 341v341h341v-341h-341zM1365 682v683h341v-683h-341zM682 1365v341h342v342h341v-683h-683zM0 0v2389h341v-2048h683v-341h-1024zM1365 2048v1024h341v-1024h-341zM341 2389v1024h1024v-341h-683v-683h-341z" />
    <glyph glyph-name="C" unicode="C" 
d="M341 0v341h683v-341h-683zM1024 341v341h341v-341h-341zM1365 682v683h341v-683h-341zM0 341v2048h341v-2048h-341zM341 2389v683h341v-683h-341zM1365 2730v342h341v-342h-341zM682 3072v341h683v-341h-683z" />
    <glyph glyph-name="D" unicode="D" 
d="M682 341v341h342v-341h-342zM1024 682v342h341v-342h-341zM0 0v2048h341v-1707h341v-341h-682zM1365 1024v1706h341v-1706h-341zM1024 2730v342h341v-342h-341zM341 2048v1365h683v-341h-342v-1024h-341z" />
    <glyph glyph-name="E" unicode="E" 
d="M341 0v341h1024v-341h-1024zM682 1706v342h683v-342h-683zM0 341v2048h341v-683h341v-341h-341v-1024h-341zM341 2389v683h341v-683h-341zM682 3072v341h1024v-341h-1024z" />
    <glyph glyph-name="F" unicode="F" 
d="M682 1706v342h683v-342h-683zM0 0v2389h341v-683h341v-341h-341v-1365h-341zM341 2389v683h341v-683h-341zM682 3072v341h1024v-341h-1024z" />
    <glyph glyph-name="G" unicode="G" 
d="M341 0v341h683v-341h-683zM1024 341v341h341v-341h-341zM682 1365v341h342v-341h-342zM1365 682v1024h-341v342h682v-1366h-341zM0 341v2048h341v-2048h-341zM341 2389v683h341v-683h-341zM1365 2730v342h341v-342h-341zM682 3072v341h683v-341h-683z" />
    <glyph glyph-name="H" unicode="H" 
d="M1024 0v682h341v-682h-341zM0 0v2389h341v-683h341v-341h-341v-1365h-341zM341 2389v1024h341v-1024h-341zM1365 682v1024h-683v342h683v1365h341v-2731h-341z" />
    <glyph glyph-name="I" unicode="I" horiz-adv-x="1706" 
d="M0 0v341h341v1707h341v-1707h342v-341h-1024zM682 2048v1024h-341v341h1024v-341h-341v-1024h-342z" />
    <glyph glyph-name="J" unicode="J" 
d="M341 0v341h683v-341h-683zM0 341v683h341v-683h-341zM1024 341v1707h341v-1707h-341zM1365 2048v1024h-341v341h682v-1365h-341z" />
    <glyph glyph-name="K" unicode="K" 
d="M1365 0v341h341v-341h-341zM1024 341v341h341v-341h-341zM682 682v342h342v-342h-342zM682 1365v683h342v-683h-342zM0 0v2730h341v-1365h341v-341h-341v-1024h-341zM1024 2048v682h341v-682h-341zM341 2730v683h341v-683h-341zM1365 2730v683h341v-683h-341z" />
    <glyph glyph-name="L" unicode="L" horiz-adv-x="1706" 
d="M341 0v341h1024v-341h-1024zM0 341v1707h341v-1707h-341zM341 2048v1024h341v-1024h-341zM682 3072v341h342v-341h-342z" />
    <glyph glyph-name="M" unicode="M" horiz-adv-x="2730" 
d="M1706 0v341h342v-341h-342zM0 0v2389h341v-2389h-341zM341 2389v683h341v-683h-341zM1024 1365v1707h341v-1707h-341zM2048 341v2731h341v-2731h-341zM682 3072v341h342v-341h-342zM1365 3072v341h683v-341h-683z" />
    <glyph glyph-name="N" unicode="N" horiz-adv-x="2730" 
d="M1706 0v341h342v-341h-342zM1365 341v1024h341v-1024h-341zM0 0v2048h341v-2048h-341zM341 2048v1024h341v-1024h-341zM1024 1365v1707h341v-1707h-341zM682 3072v341h342v-341h-342zM2048 341v3072h341v-3072h-341z" />
    <glyph glyph-name="O" unicode="O" 
d="M341 0v341h683v-341h-683zM1024 341v341h341v-341h-341zM0 341v2048h341v-2048h-341zM341 2389v683h341v-683h-341zM1365 682v2390h341v-2390h-341zM682 3072v341h683v-341h-683z" />
    <glyph glyph-name="P" unicode="P" 
d="M1024 1706v342h341v-342h-341zM0 0v2389h341v-683h683v-341h-683v-1365h-341zM341 2389v683h341v-683h-341zM1365 2048v1024h341v-1024h-341zM682 3072v341h683v-341h-683z" />
    <glyph glyph-name="Q" unicode="Q" 
d="M341 0v341h683v-341h-683zM1365 0v341h341v-341h-341zM1024 341v341h341v-341h-341zM682 682v342h342v-342h-342zM0 341v2048h341v-2048h-341zM341 2389v683h341v-683h-341zM1365 682v2390h341v-2390h-341zM682 3072v341h683v-341h-683z" />
    <glyph glyph-name="R" unicode="R" 
d="M1365 0v341h341v-341h-341zM1024 341v683h341v-683h-341zM1024 1706v342h341v-342h-341zM0 0v2389h341v-683h683v-682h-342v341h-341v-1365h-341zM341 2389v683h341v-683h-341zM1365 2048v1024h341v-1024h-341zM682 3072v341h683v-341h-683z" />
    <glyph glyph-name="S" unicode="S" 
d="M341 0v341h683v-341h-683zM0 341v341h341v-341h-341zM1024 341v341h341v-341h-341zM1365 682v683h341v-683h-341zM1024 1365v341h341v-341h-341zM682 1706v342h342v-342h-342zM341 2048v682h341v-682h-341zM682 2730v342h342v-342h-342zM1365 2730v342h341v-342h-341z
M1024 3072v341h341v-341h-341z" />
    <glyph glyph-name="T" unicode="T" 
d="M341 0v2048h341v-2048h-341zM682 2048v1024h-682v341h1706v-341h-682v-1024h-342z" />
    <glyph glyph-name="U" unicode="U" 
d="M341 0v341h683v-341h-683zM1024 341v341h341v-341h-341zM0 341v2048h341v-2048h-341zM341 2389v1024h341v-1024h-341zM1365 682v2731h341v-2731h-341z" />
    <glyph glyph-name="V" unicode="V" 
d="M682 1024v682h342v-682h-342zM0 0v2389h341v-1365h341v-683h-341v-341h-341zM1024 1706v683h341v-683h-341zM341 2389v1024h341v-1024h-341zM1365 2389v1024h341v-1024h-341z" />
    <glyph glyph-name="W" unicode="W" horiz-adv-x="2730" 
d="M341 0v341h341v-341h-341zM1706 0v341h342v-341h-342zM682 341v341h342v-341h-342zM1365 341v341h341v-341h-341zM1024 682v1366h341v-1366h-341zM0 341v2048h341v-2048h-341zM341 2389v683h341v-683h-341zM682 3072v341h342v-341h-342zM2048 341v3072h341v-3072h-341z
" />
    <glyph glyph-name="X" unicode="X" horiz-adv-x="2389" 
d="M1365 0v341h683v-341h-683zM0 0v682h341v-682h-341zM341 682v683h341v-683h-341zM1024 341v1024h-342v341h342v342h341v-1707h-341zM682 2048v1024h342v-1024h-342zM1365 2048v1024h341v-1024h-341zM341 3072v341h341v-341h-341zM1706 3072v341h342v-341h-342z" />
    <glyph glyph-name="Y" unicode="Y" 
d="M341 0v1706h341v-1706h-341zM682 1706v342h342v-342h-342zM1024 2048v682h341v-682h-341zM0 1706v1707h341v-1707h-341zM1365 2730v683h341v-683h-341z" />
    <glyph glyph-name="Z" unicode="Z" 
d="M341 0v341h683v-341h-683zM1024 341v341h682v-341h-682zM0 341v683h341v-683h-341zM341 1024v682h341v-682h-341zM682 1706v683h342v-683h-342zM1024 2389v341h341v-341h-341zM0 2730v342h341v-342h-341zM1365 2730v342h341v-342h-341zM341 3072v341h1024v-341h-1024z
" />
    <glyph glyph-name="backslash" unicode="\" horiz-adv-x="1365" 
d="M682 0v1024h342v-1024h-342zM341 1024v1365h341v-1365h-341zM0 2389v1024h341v-1024h-341z" />
    <glyph glyph-name="underscore" unicode="_" horiz-adv-x="1706" 
d="M0 0v341h1365v-341h-1365z" />
    <glyph glyph-name="a" unicode="a" 
d="M341 0v341h341v-341h-341zM0 341v1024h341v-1024h-341zM341 1365v341h341v-341h-341zM1024 0v341h-342v341h342v1024h341v-1365h341v-341h-682zM682 1706v342h342v-342h-342z" />
    <glyph glyph-name="b" unicode="b" horiz-adv-x="1706" 
d="M341 0v341h341v-341h-341zM682 341v341h342v-341h-342zM1024 682v1024h341v-1024h-341zM682 1706v342h342v-342h-342zM0 341v2048h341v-683h341v-341h-341v-1024h-341zM341 2389v683h341v-683h-341zM682 3072v341h342v-341h-342z" />
    <glyph glyph-name="c" unicode="c" horiz-adv-x="1706" 
d="M341 0v341h683v-341h-683zM1024 341v341h341v-341h-341zM0 341v1024h341v-1024h-341zM341 1365v341h341v-341h-341zM1024 1365v341h341v-341h-341zM682 1706v342h342v-342h-342z" />
    <glyph glyph-name="d" unicode="d" 
d="M341 0v341h341v-341h-341zM0 341v1024h341v-1024h-341zM341 1365v341h341v-341h-341zM1024 0v341h-342v341h342v1024h-342v342h342v682h341v-2730h-341zM1365 2730v342h341v-342h-341z" />
    <glyph glyph-name="e" unicode="e" horiz-adv-x="1706" 
d="M341 0v341h683v-341h-683zM0 341v1024h341v-341h683v-342h-683v-341h-341zM341 1365v341h341v-341h-341zM1024 1024v682h341v-682h-341zM682 1706v342h342v-342h-342z" />
    <glyph glyph-name="f" unicode="f" 
d="M341 0v1365h-341v341h341v683h341v-341h683v-342h-683v-1706h-341zM682 2389v683h342v-683h-342zM1365 2730v342h341v-342h-341zM1024 3072v341h341v-341h-341z" />
    <glyph glyph-name="g" unicode="g" 
d="M341 -682v341h683v-341h-683zM0 -341v341h341v-341h-341zM1024 -341v341h-342v341h683v-682h-341zM341 341v1024h341v-1024h-341zM682 1365v341h342v-341h-342zM1365 341v1365h341v-1365h-341zM1024 1706v342h341v-342h-341z" />
    <glyph glyph-name="h" unicode="h" horiz-adv-x="1706" 
d="M1024 0v1706h341v-1706h-341zM682 1706v342h342v-342h-342zM0 0v2389h341v-683h341v-341h-341v-1365h-341zM341 2389v683h341v-683h-341zM682 3072v341h342v-341h-342z" />
    <glyph glyph-name="i" unicode="i" horiz-adv-x="1365" 
d="M341 0v341h341v-341h-341zM682 341v341h342v-341h-342zM0 341v1024h341v-1024h-341zM341 1365v683h341v-683h-341zM341 2730v342h683v-342h-683z" />
    <glyph glyph-name="j" unicode="j" horiz-adv-x="1706" 
d="M341 -682v341h341v-341h-341zM0 -341v341h341v-341h-341zM682 -341v1365h342v-1365h-342zM1024 1024v1024h341v-1024h-341zM682 2730v342h683v-342h-683z" />
    <glyph glyph-name="k" unicode="k" horiz-adv-x="1706" 
d="M1024 0v341h341v-341h-341zM682 341v341h342v-341h-342zM682 1365v341h342v-341h-342zM1024 1706v342h341v-342h-341zM0 0v2389h341v-1024h341v-683h-341v-682h-341zM341 2389v683h341v-683h-341zM682 3072v341h342v-341h-342z" />
    <glyph glyph-name="l" unicode="l" horiz-adv-x="1365" 
d="M0 0v2389h341v-2389h-341zM341 2389v683h341v-683h-341zM682 3072v341h342v-341h-342z" />
    <glyph glyph-name="m" unicode="m" horiz-adv-x="2389" 
d="M1365 0v341h341v-341h-341zM682 0v682h342v-682h-342zM0 0v1024h341v-1024h-341zM341 1024v682h341v-682h-341zM1024 682v1024h341v-1024h-341zM1706 341v1365h342v-1365h-342zM0 1706v342h341v-342h-341zM682 1706v342h342v-342h-342zM1365 1706v342h341v-342h-341z" />
    <glyph glyph-name="n" unicode="n" horiz-adv-x="1706" 
d="M682 0v682h342v-682h-342zM0 0v1024h341v-1024h-341zM341 1024v682h341v-682h-341zM1024 682v1024h341v-1024h-341zM0 1706v342h341v-342h-341zM682 1706v342h342v-342h-342z" />
    <glyph glyph-name="o" unicode="o" horiz-adv-x="1706" 
d="M341 0v341h341v-341h-341zM682 341v341h342v-341h-342zM0 341v1024h341v-1024h-341zM341 1365v341h341v-341h-341zM1024 682v1024h341v-1024h-341zM682 1706v342h342v-342h-342z" />
    <glyph glyph-name="p" unicode="p" horiz-adv-x="1706" 
d="M682 341v341h342v-341h-342zM0 -682v2047h341v-1024h341v-341h-341v-682h-341zM341 1365v341h341v-341h-341zM1024 682v1024h341v-1024h-341zM682 1706v342h342v-342h-342z" />
    <glyph glyph-name="q" unicode="q" 
d="M1365 -341v341h341v-341h-341zM682 -682v682h-341v341h341v341h342v-1023h341v-341h-683zM0 341v1024h341v-1024h-341zM341 1365v341h341v-341h-341zM1024 682v1024h-342v342h683v-1366h-341z" />
    <glyph glyph-name="r" unicode="r" horiz-adv-x="1706" 
d="M0 0v1706h341v-341h341v-341h-341v-1024h-341zM682 1365v341h683v-341h-683z" />
    <glyph glyph-name="s" unicode="s" horiz-adv-x="1706" 
d="M0 0v341h1024v-341h-1024zM1024 341v341h341v-341h-341zM341 682v342h683v-342h-683zM0 1024v341h341v-341h-341zM341 1365v341h341v-341h-341zM682 1706v342h683v-342h-683z" />
    <glyph glyph-name="t" unicode="t" horiz-adv-x="1706" 
d="M682 0v341h342v-341h-342zM1024 341v341h341v-341h-341zM341 341v1024h-341v341h341v1024h341v-682h342v-342h-342v-1365h-341zM682 2730v683h342v-683h-342z" />
    <glyph glyph-name="u" unicode="u" horiz-adv-x="1706" 
d="M341 0v341h341v-341h-341zM0 341v1024h341v-1024h-341zM341 1365v683h341v-683h-341zM1024 0v341h-342v341h342v1366h341v-2048h-341z" />
    <glyph glyph-name="v" unicode="v" horiz-adv-x="1706" 
d="M682 682v683h342v-683h-342zM0 0v2048h341v-1366h341v-341h-341v-341h-341zM1024 1365v683h341v-683h-341z" />
    <glyph glyph-name="w" unicode="w" horiz-adv-x="2389" 
d="M341 0v341h341v-341h-341zM1024 0v341h682v-341h-682zM682 341v683h342v-683h-342zM0 341v1024h341v-1024h-341zM341 1365v683h341v-683h-341zM1024 1024v1024h341v-1024h-341zM1706 341v1707h342v-1707h-342z" />
    <glyph glyph-name="x" unicode="x" 
d="M1024 0v341h682v-341h-682zM0 0v682h341v-682h-341zM682 341v341h-341v342h341v341h342v-1024h-342zM1024 1365v341h341v-341h-341zM341 1365v341h-341v342h682v-683h-341zM1365 1706v342h341v-342h-341z" />
    <glyph glyph-name="y" unicode="y" horiz-adv-x="1706" 
d="M0 -682v341h682v-341h-682zM682 -341v341h-341v341h683v-682h-342zM0 341v683h341v-683h-341zM341 1024v682h341v-682h-341zM0 1706v342h341v-342h-341zM1024 341v1707h341v-1707h-341z" />
    <glyph glyph-name="z" unicode="z" horiz-adv-x="1706" 
d="M0 0v682h341v-341h683v-341h-1024zM1024 341v341h341v-341h-341zM341 682v342h341v-342h-341zM682 1024v341h342v-341h-342zM1024 1365v341h341v-341h-341zM341 1706v342h683v-342h-683z" />
    <glyph glyph-name="asciitilde" unicode="~" horiz-adv-x="2730" 
d="M1365 1024v341h683v-341h-683zM0 1365v341h341v-341h-341zM1024 1365v341h341v-341h-341zM2048 1365v341h341v-341h-341zM341 1706v342h683v-342h-683z" />
    <glyph glyph-name="quoteright" unicode="&#x2019;" horiz-adv-x="1365" 
d="M0 1706v342h341v-342h-341zM341 2048v682h683v-682h-683z" />
    <glyph glyph-name="quotedblleft" unicode="&#x201c;" 
d="M341 2389v341h-341v1024h341v-341h341v-1024h-341zM1365 2389v341h-341v1024h341v-341h341v-1024h-341z" />
    <glyph glyph-name="quotedblright" unicode="&#x201d;" 
d="M0 2389v1024h341v341h341v-1024h-341v-341h-341zM1024 2389v1024h341v341h341v-1024h-341v-341h-341z" />
  </font>
</defs>
</svg>
